<svg width="96" height="35" viewBox="0 0 96 35" fill="none" xmlns="http://www.w3.org/2000/svg">
<path d="M8.74432 20.3766C8.66761 19.7289 8.35653 19.2261 7.81108 18.8681C7.26563 18.5102 6.59659 18.3312 5.80398 18.3312C5.22443 18.3312 4.71733 18.4249 4.28267 18.6124C3.85227 18.7999 3.51563 19.0577 3.27273 19.3859C3.03409 19.714 2.91477 20.0869 2.91477 20.5045C2.91477 20.8539 2.99787 21.1543 3.16406 21.4058C3.33452 21.6529 3.55185 21.8596 3.81605 22.0258C4.08026 22.1877 4.35724 22.322 4.64702 22.4285C4.93679 22.5308 5.20312 22.6139 5.44602 22.6778L6.77557 23.0357C7.11648 23.1252 7.49574 23.2488 7.91335 23.4065C8.33523 23.5641 8.73793 23.7793 9.12145 24.0521C9.50923 24.3205 9.82884 24.6657 10.0803 25.0876C10.3317 25.5095 10.4574 26.0272 10.4574 26.6408C10.4574 27.3482 10.272 27.9874 9.90128 28.5585C9.5348 29.1295 8.99787 29.5833 8.29048 29.92C7.58736 30.2566 6.73295 30.4249 5.72727 30.4249C4.78977 30.4249 3.97798 30.2737 3.2919 29.9711C2.61009 29.6685 2.07315 29.2467 1.68111 28.7055C1.29332 28.1643 1.07386 27.5357 1.02273 26.8198H2.65909C2.7017 27.3141 2.8679 27.7232 3.15767 28.0471C3.4517 28.3667 3.82244 28.6053 4.26989 28.763C4.72159 28.9164 5.20739 28.9931 5.72727 28.9931C6.33239 28.9931 6.87571 28.8951 7.35724 28.6991C7.83878 28.4988 8.22017 28.2218 8.50142 27.8681C8.78267 27.5102 8.9233 27.0926 8.9233 26.6153C8.9233 26.1806 8.80185 25.8269 8.55895 25.5542C8.31605 25.2815 7.99645 25.0599 7.60014 24.8894C7.20384 24.719 6.77557 24.5698 6.31534 24.442L4.70455 23.9818C3.68182 23.6877 2.87216 23.268 2.27557 22.7225C1.67898 22.1771 1.38068 21.4633 1.38068 20.5812C1.38068 19.8482 1.57884 19.209 1.97514 18.6636C2.37571 18.1139 2.91264 17.6877 3.58594 17.3852C4.26349 17.0783 5.01989 16.9249 5.85511 16.9249C6.69886 16.9249 7.44886 17.0762 8.10511 17.3788C8.76136 17.6771 9.28125 18.0862 9.66477 18.606C10.0526 19.1259 10.2571 19.7161 10.2784 20.3766H8.74432ZM12.8592 30.1948V20.3766H14.3677V30.1948H12.8592ZM13.6262 18.7403C13.3322 18.7403 13.0787 18.6401 12.8656 18.4399C12.6568 18.2396 12.5524 17.9988 12.5524 17.7176C12.5524 17.4363 12.6568 17.1955 12.8656 16.9952C13.0787 16.795 13.3322 16.6948 13.6262 16.6948C13.9203 16.6948 14.1717 16.795 14.3805 16.9952C14.5936 17.1955 14.7001 17.4363 14.7001 17.7176C14.7001 17.9988 14.5936 18.2396 14.3805 18.4399C14.1717 18.6401 13.9203 18.7403 13.6262 18.7403ZM21.0938 34.0812C20.3651 34.0812 19.7386 33.9874 19.2145 33.7999C18.6903 33.6167 18.2536 33.3738 17.9041 33.0712C17.5589 32.7729 17.2841 32.4533 17.0795 32.1124L18.2812 31.2687C18.4176 31.4477 18.5902 31.6522 18.799 31.8823C19.0078 32.1167 19.2933 32.3191 19.6555 32.4896C20.022 32.6643 20.5014 32.7516 21.0938 32.7516C21.8864 32.7516 22.5405 32.5599 23.0561 32.1764C23.5717 31.7928 23.8295 31.192 23.8295 30.3738V28.3795H23.7017C23.5909 28.5585 23.4332 28.7801 23.2287 29.0443C23.0284 29.3042 22.7386 29.5364 22.3594 29.741C21.9844 29.9413 21.4773 30.0414 20.8381 30.0414C20.0455 30.0414 19.3338 29.8539 18.7031 29.4789C18.0767 29.1039 17.5803 28.5585 17.2138 27.8426C16.8516 27.1266 16.6705 26.2573 16.6705 25.2346C16.6705 24.2289 16.8473 23.3532 17.201 22.6075C17.5547 21.8575 18.0469 21.2779 18.6776 20.8688C19.3082 20.4555 20.0369 20.2488 20.8636 20.2488C21.5028 20.2488 22.0099 20.3553 22.3849 20.5684C22.7642 20.7772 23.054 21.0158 23.2543 21.2843C23.4588 21.5485 23.6165 21.7658 23.7273 21.9363H23.8807V20.3766H25.3381V30.4761C25.3381 31.3198 25.1463 32.0059 24.7628 32.5343C24.3835 33.067 23.8722 33.4569 23.2287 33.7041C22.5895 33.9555 21.8778 34.0812 21.0938 34.0812ZM21.0426 28.6863C21.6477 28.6863 22.1591 28.5478 22.5767 28.2708C22.9943 27.9938 23.3118 27.5954 23.5291 27.0755C23.7464 26.5556 23.8551 25.9335 23.8551 25.209C23.8551 24.5016 23.7486 23.8774 23.5355 23.3362C23.3224 22.795 23.0071 22.371 22.5895 22.0641C22.1719 21.7573 21.6563 21.6039 21.0426 21.6039C20.4034 21.6039 19.8707 21.7658 19.4446 22.0897C19.0227 22.4136 18.7053 22.8482 18.4922 23.3937C18.2834 23.9391 18.179 24.5443 18.179 25.209C18.179 25.8908 18.2855 26.4938 18.4986 27.018C18.7159 27.5379 19.0355 27.947 19.4574 28.2453C19.8835 28.5393 20.4119 28.6863 21.0426 28.6863ZM29.608 24.2886V30.1948H28.0994V20.3766H29.5568V21.9107H29.6847C29.9148 21.4122 30.2642 21.0116 30.733 20.709C31.2017 20.4022 31.8068 20.2488 32.5483 20.2488C33.2131 20.2488 33.7947 20.3852 34.2933 20.6579C34.7919 20.9264 35.1797 21.3354 35.4567 21.8852C35.7337 22.4306 35.8722 23.121 35.8722 23.9562V30.1948H34.3636V24.0585C34.3636 23.2872 34.1634 22.6863 33.7628 22.2559C33.3622 21.8212 32.8125 21.6039 32.1136 21.6039C31.6321 21.6039 31.2017 21.7083 30.8224 21.9171C30.4474 22.1259 30.1513 22.4306 29.9339 22.8312C29.7166 23.2318 29.608 23.7176 29.608 24.2886ZM45.481 17.1039V30.1948H43.8958V17.1039H45.481ZM49.9634 24.2886V30.1948H48.4549V20.3766H49.9123V21.9107H50.0401C50.2702 21.4122 50.6197 21.0116 51.0884 20.709C51.5572 20.4022 52.1623 20.2488 52.9038 20.2488C53.5685 20.2488 54.1502 20.3852 54.6488 20.6579C55.1474 20.9264 55.5352 21.3354 55.8121 21.8852C56.0891 22.4306 56.2276 23.121 56.2276 23.9562V30.1948H54.7191V24.0585C54.7191 23.2872 54.5188 22.6863 54.1183 22.2559C53.7177 21.8212 53.168 21.6039 52.4691 21.6039C51.9876 21.6039 51.5572 21.7083 51.1779 21.9171C50.8029 22.1259 50.5067 22.4306 50.2894 22.8312C50.0721 23.2318 49.9634 23.7176 49.9634 24.2886Z" fill="#FFF5F5"/>
<g clip-path="url(#clip0_11_567)">
<path d="M94.7352 29.3552C94.2052 28.0835 93.4361 26.9284 92.4707 25.9542C91.5083 24.9772 90.3682 24.1983 89.1134 23.6604C89.1022 23.6547 89.0909 23.6518 89.0797 23.6461C90.83 22.3654 91.9678 20.2793 91.9678 17.9257C91.9678 14.0267 88.8493 10.8677 85.0003 10.8677C81.1513 10.8677 78.0327 14.0267 78.0327 17.9257C78.0327 20.2793 79.1706 22.3654 80.9209 23.649C80.9097 23.6547 80.8984 23.6575 80.8872 23.6632C79.6285 24.2011 78.4991 24.9724 77.5298 25.9571C76.5654 26.932 75.7964 28.0869 75.2654 29.358C74.7437 30.6024 74.4624 31.9366 74.4366 33.2883C74.4358 33.3187 74.4411 33.3489 74.4521 33.3772C74.463 33.4055 74.4795 33.4313 74.5004 33.453C74.5214 33.4748 74.5464 33.492 74.574 33.5038C74.6017 33.5156 74.6314 33.5217 74.6614 33.5217H76.3471C76.4707 33.5217 76.569 33.4221 76.5718 33.2997C76.628 31.1026 77.4989 29.045 79.0385 27.4854C80.6315 25.8717 82.7471 24.9837 85.0003 24.9837C87.2535 24.9837 89.3691 25.8717 90.962 27.4854C92.5016 29.045 93.3726 31.1026 93.4288 33.2997C93.4316 33.4249 93.5299 33.5217 93.6535 33.5217H95.3392C95.3692 33.5217 95.3989 33.5156 95.4266 33.5038C95.4542 33.492 95.4792 33.4748 95.5002 33.453C95.5211 33.4313 95.5376 33.4055 95.5485 33.3772C95.5595 33.3489 95.5647 33.3187 95.564 33.2883C95.5359 31.9279 95.2578 30.6046 94.7352 29.3552ZM85.0003 22.8208C83.7107 22.8208 82.497 22.3114 81.5839 21.3864C80.6709 20.4615 80.168 19.232 80.168 17.9257C80.168 16.6194 80.6709 15.3899 81.5839 14.465C82.497 13.5401 83.7107 13.0306 85.0003 13.0306C86.2899 13.0306 87.5036 13.5401 88.4166 14.465C89.3297 15.3899 89.8326 16.6194 89.8326 17.9257C89.8326 19.232 89.3297 20.4615 88.4166 21.3864C87.5036 22.3114 86.2899 22.8208 85.0003 22.8208Z" fill="#FFF5F5"/>
</g>
<defs>
<clipPath id="clip0_11_567">
<rect width="22" height="24" fill="white" transform="translate(74 10.1948)"/>
</clipPath>
</defs>
</svg>
